#N canvas 63 40 1280 712 12;
#X obj 314 671 dac~;
#X obj 12 19 r sampleset;
#X obj 10 56 sel 1 2 3 4;
#X obj 480 167 change;
#X obj 310 639 hip~ 5;
#N canvas 0 22 450 300 (subpatch) 0;
#X array sample-table 100000 float 0;
#X coords 0 1.02 99999 -1.02 200 130 1;
#X restore 934 485 graph;
#X obj 126 536 line~;
#X obj 934 257 loadbang;
#X text 399 634 read from the table;
#X text 390 652 (the input is the index in samples);
#X text 940 638 (one second plus three extra;
#X text 942 657 for 4-point interpolation);
#X text 923 410 message to read a soundfile into the table (automatically
sent when you load this patch by the "loadbang" object.);
#X text 933 616 --- 44103 samples ---;
#X obj 943 390 soundfiler;
#X msg 169 482 0 0;
#X obj 479 111 int;
#X obj 480 139 t f f;
#X obj 480 190 f;
#X msg 90 481 96000 \$1;
#X obj 119 444 t f b;
#X obj 120 416 spigot;
#X obj 506 326 f;
#X obj 540 327 + 1;
#X obj 506 352 % 4;
#X obj 416 296 t f b;
#X obj 156 381 == 0;
#X obj 298 533 line~;
#X msg 358 479 0 0;
#X msg 262 478 96000 \$1;
#X obj 291 441 t f b;
#X obj 292 413 spigot;
#X obj 488 532 line~;
#X msg 531 478 0 0;
#X msg 452 477 96000 \$1;
#X obj 481 440 t f b;
#X obj 482 412 spigot;
#X obj 667 528 line~;
#X msg 710 474 0 0;
#X msg 631 473 96000 \$1;
#X obj 660 436 t f b;
#X obj 661 408 spigot;
#X obj 332 384 == 1;
#X obj 522 383 == 2;
#X obj 701 379 == 3;
#X floatatom 741 414 5 0 0 0 - - -;
#X floatatom 545 415 5 0 0 0 - - -;
#X floatatom 355 416 5 0 0 0 - - -;
#N canvas 0 22 450 300 (subpatch) 0;
#X array sample2 100000 float 0;
#X coords 0 1.02 99999 -1.02 200 130 1 0 0;
#X restore 1186 510 graph;
#X floatatom 2106 467 5 0 0 0 - - -;
#X msg 845 316 read bell2.aiff sample-table;
#X obj 207 66 r rotationz;
#X obj 232 137 change;
#X obj 389 250 f;
#X obj 478 57 + 1;
#X obj 140 231 osc~;
#X obj 152 141 * 1000;
#X obj 171 100 abs;
#X obj 291 261 bng 15 250 50 0 empty empty empty 17 7 0 10 -262144
-1 -1;
#X msg 941 348 read DemS5L.aiff sample2;
#X obj 234 106 > 2;
#X obj 247 173 tgl 15 0 empty empty empty 17 7 0 10 -262144 -1 -1 0
1;
#X obj 262 199 sel 1;
#X obj 478 19 r tilty;
#X obj 479 83 * 5;
#X obj 126 571 tabread4~ sample-table;
#X obj 481 217 * 1000;
#X obj 298 568 tabread4~ sample-table;
#X obj 488 567 tabread4~ sample-table;
#X obj 667 563 tabread4~ sample-table;
#X obj 1974 80 soundfiler;
#N canvas 0 22 450 278 (subpatch) 0;
#X array mysound 18265 float 2;
#X coords 0 1 18265 -1 200 140 1;
#X restore 1941 184 graph;
#X floatatom 1974 102 10 0 0 0 - - -;
#X obj 1974 125 s samplelength;
#X obj 1943 353 r samplelength;
#X floatatom 1943 375 5 0 0 0 - - -;
#N canvas 176 394 468 127 get-sampling-rate 0;
#X floatatom 9 11 8 0 0 0 - - -;
#X text 64 11 Samples/sec;
#X obj 9 35 outlet;
#X obj 9 -12 samplerate~;
#X obj 9 -33 bng 15 250 50 0 empty empty empty 17 7 0 10 -262144 -1
-1;
#X obj 9 -55 r pd;
#X obj 43 -55 loadbang;
#X text 126 -58 Recheck what the sampling rate is when the patch is
originally opened and whenever the message "pd" is sent.;
#X connect 0 0 2 0;
#X connect 3 0 0 0;
#X connect 4 0 3 0;
#X connect 5 0 4 0;
#X connect 6 0 4 0;
#X restore 2027 399 pd get-sampling-rate;
#X floatatom 2027 422 5 0 0 0 - - -;
#X text 1979 376 Length of loaded sound in samples;
#X obj 1988 466 * 1000;
#X floatatom 1988 489 5 0 0 0 - - -;
#X text 2024 490 Length of loaded sound in ms;
#X text 2030 465 <-- To convert seconds to ms;
#X obj 1943 528 pack 0 0;
#X obj 1943 397 t f f;
#X obj 1943 551 prepend set;
#X msg 1943 574 0 0;
#X obj 1533 551 dac~;
#X text 2046 97 Size of loaded sound in samples;
#X obj 1988 443 / 22050;
#X text 2035 574 Length of WAV file in audio samples and then in milliseconds
;
#X msg 1974 58 read -resize breaking-saucer.wav mysound;
#X msg 1957 32 read -resize johnshort.wav mysound;
#X obj 1524 243 bng 15 250 50 0 empty empty empty 17 7 0 10 -262144
-1 -1;
#X obj 1525 88 metro 200;
#X obj 1525 61 tgl 15 0 empty empty empty 17 7 0 10 -262144 -1 -1 0
1;
#X floatatom 1583 62 5 0 0 0 - - -;
#X obj 2048 443 s sr;
#X obj 1676 214 s glen;
#X floatatom 1675 187 5 0 0 0 - - -;
#X floatatom 1749 158 5 0 0 0 - - -;
#X floatatom 1833 155 5 0 0 0 - - -;
#X obj 1748 212 s gstart;
#X obj 1832 219 s goct;
#X obj 1544 257 + 1;
#X obj 1524 287 f;
#X obj 1524 315 % 4;
#X obj 1524 340 sel 0 1 2 3;
#X obj 1777 32 loadbang;
#X obj 1452 391 onegrain;
#X obj 1534 391 onegrain;
#X obj 1616 391 onegrain;
#X obj 1698 391 onegrain;
#X obj 1748 182 * 100;
#X obj 1512 510 *~ 0.5;
#X obj 1589 508 *~ 0.5;
#X msg 1818 77 10;
#X msg 1756 82 4;
#X msg 1638 41 80;
#X text 1502 41 TURN ON HERE;
#X text 1571 179 GRAIN LENGTH MS;
#X obj 1833 188 / 100;
#X text 1857 169 % SPEED;
#X text 1694 131 PLAY WITH THESE NUMBERS;
#X text 1848 135 ESPECIALLY THIS ONE;
#X floatatom 1821 508 4 0 999 0 - - -;
#X obj 1717 454 delread~ delay1;
#X obj 1718 434 delwrite~ delay1 1000;
#X obj 1821 455 loadbang;
#X obj 1700 488 *~ 0.7;
#X msg 1821 482 200;
#X text 1734 415 comment;
#X text 1732 236 BUFFER POSITION;
#X msg 1677 88 160;
#X connect 1 0 2 0;
#X connect 3 0 18 0;
#X connect 4 0 0 0;
#X connect 4 0 0 1;
#X connect 6 0 65 0;
#X connect 7 0 50 0;
#X connect 7 0 59 0;
#X connect 15 0 6 0;
#X connect 16 0 17 0;
#X connect 17 0 3 0;
#X connect 17 1 18 1;
#X connect 18 0 66 0;
#X connect 19 0 6 0;
#X connect 20 0 19 0;
#X connect 20 1 15 0;
#X connect 21 0 20 0;
#X connect 22 0 23 0;
#X connect 22 0 24 0;
#X connect 23 0 22 1;
#X connect 24 0 26 0;
#X connect 24 0 42 0;
#X connect 24 0 43 0;
#X connect 24 0 44 0;
#X connect 25 0 21 0;
#X connect 25 0 31 0;
#X connect 25 0 36 0;
#X connect 25 0 41 0;
#X connect 25 1 22 0;
#X connect 26 0 21 1;
#X connect 27 0 67 0;
#X connect 28 0 27 0;
#X connect 29 0 27 0;
#X connect 30 0 29 0;
#X connect 30 1 28 0;
#X connect 31 0 30 0;
#X connect 32 0 68 0;
#X connect 33 0 32 0;
#X connect 34 0 32 0;
#X connect 35 0 34 0;
#X connect 35 1 33 0;
#X connect 36 0 35 0;
#X connect 37 0 69 0;
#X connect 38 0 37 0;
#X connect 39 0 37 0;
#X connect 40 0 39 0;
#X connect 40 1 38 0;
#X connect 41 0 40 0;
#X connect 42 0 31 1;
#X connect 42 0 47 0;
#X connect 43 0 36 1;
#X connect 43 0 46 0;
#X connect 44 0 41 1;
#X connect 44 0 45 0;
#X connect 50 0 14 0;
#X connect 51 0 60 0;
#X connect 52 0 61 0;
#X connect 53 0 25 0;
#X connect 54 0 64 0;
#X connect 55 0 4 0;
#X connect 56 0 55 0;
#X connect 57 0 56 0;
#X connect 58 0 53 0;
#X connect 59 0 14 0;
#X connect 60 0 52 0;
#X connect 61 0 62 0;
#X connect 62 0 58 0;
#X connect 63 0 54 0;
#X connect 64 0 16 0;
#X connect 65 0 4 0;
#X connect 66 0 53 1;
#X connect 67 0 4 0;
#X connect 68 0 4 0;
#X connect 69 0 4 0;
#X connect 70 0 72 0;
#X connect 72 0 73 0;
#X connect 74 0 75 0;
#X connect 75 0 84 0;
#X connect 76 0 77 0;
#X connect 77 0 89 1;
#X connect 77 0 97 0;
#X connect 79 0 80 0;
#X connect 80 0 83 1;
#X connect 83 0 85 0;
#X connect 84 0 83 0;
#X connect 84 1 89 0;
#X connect 85 0 86 0;
#X connect 89 0 79 0;
#X connect 91 0 70 0;
#X connect 92 0 70 0;
#X connect 93 0 105 0;
#X connect 94 0 93 0;
#X connect 95 0 94 0;
#X connect 96 0 94 1;
#X connect 99 0 98 0;
#X connect 100 0 113 0;
#X connect 101 0 121 0;
#X connect 104 0 105 1;
#X connect 105 0 104 0;
#X connect 105 0 106 0;
#X connect 106 0 107 0;
#X connect 107 0 109 0;
#X connect 107 1 110 0;
#X connect 107 2 111 0;
#X connect 107 3 112 0;
#X connect 108 0 133 0;
#X connect 108 0 116 0;
#X connect 108 0 91 0;
#X connect 108 0 117 0;
#X connect 108 0 118 0;
#X connect 109 0 114 0;
#X connect 109 0 127 0;
#X connect 110 0 115 0;
#X connect 110 0 127 0;
#X connect 111 0 114 0;
#X connect 111 0 127 0;
#X connect 112 0 115 0;
#X connect 112 0 127 0;
#X connect 113 0 102 0;
#X connect 114 0 87 0;
#X connect 115 0 87 1;
#X connect 116 0 101 0;
#X connect 117 0 100 0;
#X connect 118 0 96 0;
#X connect 121 0 103 0;
#X connect 125 0 126 0;
#X connect 126 0 129 0;
#X connect 126 0 114 0;
#X connect 126 0 115 0;
#X connect 128 0 130 0;
#X connect 129 0 127 0;
#X connect 130 0 125 0;
#X connect 133 0 99 0;
