#N canvas 76 43 1280 712 12;
#X obj 487 818 dac~;
#X obj 480 167 change;
#N canvas 0 22 450 300 (subpatch) 0;
#X array sample-table 1.1466e+06 float 2;
#X coords 0 1.02 1.1466e+06 -1.02 200 130 1;
#X restore 761 174 graph;
#X obj 126 536 line~;
#X obj 761 -54 loadbang;
#X obj 770 79 soundfiler;
#X msg 197 482 0 0;
#X obj 479 111 int;
#X obj 480 139 t f f;
#X obj 480 190 f;
#X obj 119 444 t f b;
#X obj 120 416 spigot;
#X obj 528 289 f;
#X obj 562 290 + 1;
#X obj 416 296 t f b;
#X obj 156 381 == 0;
#X obj 298 533 line~;
#X msg 358 479 0 0;
#X obj 291 441 t f b;
#X obj 292 413 spigot;
#X obj 488 532 line~;
#X msg 531 478 0 0;
#X obj 481 440 t f b;
#X obj 482 412 spigot;
#X obj 667 528 line~;
#X msg 710 474 0 0;
#X obj 660 436 t f b;
#X obj 661 408 spigot;
#X obj 332 384 == 1;
#X obj 522 383 == 2;
#X obj 701 379 == 3;
#N canvas 0 22 450 300 (subpatch) 0;
#X array sample2 100000 float 0;
#X coords 0 1.02 99999 -1.02 200 130 1 0 0;
#X restore 1013 199 graph;
#X obj 328 76 change;
#X obj 389 250 f;
#X obj 472 35 + 1;
#X obj 560 669 abs;
#X obj 341 170 bng 15 250 50 0 empty empty empty 17 7 0 10 -262144
-1 -1;
#X msg 768 37 read DemS5L.aiff sample2;
#X obj 331 109 tgl 15 0 empty empty empty 17 7 0 10 -262144 -1 -1 0
1;
#X obj 337 138 sel 1;
#X obj 472 10 r tilty;
#X obj 126 571 tabread4~ sample-table;
#X obj 298 568 tabread4~ sample-table;
#X obj 488 567 tabread4~ sample-table;
#X obj 667 563 tabread4~ sample-table;
#X msg 631 473 1.1466e+06 \$1;
#X msg 452 477 1.1466e+06 \$1;
#X msg 262 478 1.1466e+06 \$1;
#X msg 90 481 1.1466e+06 \$1;
#X obj 225 638 *~ 0.5;
#X text 750 99 comment;
#X obj 310 682 *~;
#X obj 322 17 r rotationx;
#X obj 322 45 < -2;
#X obj 472 61 * 10;
#X obj 568 637 r tiltx;
#X floatatom 223 782 4 0 999 0 - - -;
#X obj 119 728 delread~ delay1;
#X obj 120 708 delwrite~ delay1 1000;
#X obj 223 729 loadbang;
#X obj 548 726 osc~;
#X obj 559 696 * 5;
#X obj 118 759 *~ 0.8;
#X msg 223 756 100;
#X msg 714 -2 read nepalese2.aiff sample-table;
#X text 515 36 0-2;
#X text 517 61 0-20;
#X obj 481 217 * 1300;
#X obj 474 86 + 0;
#X obj 868 524 line~;
#X msg 911 470 0 0;
#X obj 861 432 t f b;
#X obj 862 404 spigot;
#X obj 1047 520 line~;
#X msg 1090 466 0 0;
#X obj 1040 428 t f b;
#X obj 1041 400 spigot;
#X obj 868 559 tabread4~ sample-table;
#X obj 1047 555 tabread4~ sample-table;
#X msg 1011 465 1.1466e+06 \$1;
#X msg 832 469 1.1466e+06 \$1;
#X obj 902 375 == 4;
#X obj 1081 371 == 5;
#X obj 528 315 % 6;
#X obj 810 652 *~ 0.5;
#X obj 811 682 *~;
#X floatatom 1056 786 4 0 999 0 - - -;
#X obj 952 732 delread~ delay1;
#X obj 953 712 delwrite~ delay1 1000;
#X obj 1056 733 loadbang;
#X obj 951 763 *~ 0.8;
#X msg 1056 760 100;
#X obj 324 641 *~ 0.25;
#X obj 888 644 *~ 0.25;
#X connect 1 0 9 0;
#X connect 3 0 41 0;
#X connect 4 0 64 0;
#X connect 4 0 37 0;
#X connect 6 0 3 0;
#X connect 7 0 8 0;
#X connect 8 0 1 0;
#X connect 8 1 9 1;
#X connect 9 0 67 0;
#X connect 10 0 48 0;
#X connect 10 1 6 0;
#X connect 11 0 10 0;
#X connect 12 0 13 0;
#X connect 12 0 83 0;
#X connect 13 0 12 1;
#X connect 14 0 11 0;
#X connect 14 0 19 0;
#X connect 14 0 23 0;
#X connect 14 0 27 0;
#X connect 14 0 72 0;
#X connect 14 0 76 0;
#X connect 14 1 12 0;
#X connect 15 0 11 1;
#X connect 16 0 42 0;
#X connect 17 0 16 0;
#X connect 18 0 47 0;
#X connect 18 1 17 0;
#X connect 19 0 18 0;
#X connect 20 0 43 0;
#X connect 21 0 20 0;
#X connect 22 0 46 0;
#X connect 22 1 21 0;
#X connect 23 0 22 0;
#X connect 24 0 44 0;
#X connect 25 0 24 0;
#X connect 26 0 45 0;
#X connect 26 1 25 0;
#X connect 27 0 26 0;
#X connect 28 0 19 1;
#X connect 29 0 23 1;
#X connect 30 0 27 1;
#X connect 32 0 38 0;
#X connect 33 0 14 0;
#X connect 34 0 54 0;
#X connect 35 0 61 0;
#X connect 36 0 33 0;
#X connect 37 0 5 0;
#X connect 38 0 39 0;
#X connect 39 0 36 0;
#X connect 40 0 34 0;
#X connect 41 0 49 0;
#X connect 41 0 93 0;
#X connect 42 0 84 0;
#X connect 42 0 92 0;
#X connect 43 0 49 0;
#X connect 43 0 93 0;
#X connect 44 0 84 0;
#X connect 44 0 92 0;
#X connect 45 0 24 0;
#X connect 46 0 20 0;
#X connect 47 0 16 0;
#X connect 48 0 3 0;
#X connect 49 0 51 0;
#X connect 51 0 0 0;
#X connect 51 0 58 0;
#X connect 52 0 53 0;
#X connect 53 0 32 0;
#X connect 54 0 68 0;
#X connect 55 0 35 0;
#X connect 56 0 57 0;
#X connect 57 0 62 0;
#X connect 59 0 63 0;
#X connect 60 0 85 1;
#X connect 60 0 51 1;
#X connect 61 0 60 0;
#X connect 62 0 58 0;
#X connect 62 0 0 0;
#X connect 63 0 56 0;
#X connect 64 0 5 0;
#X connect 67 0 33 1;
#X connect 68 0 7 0;
#X connect 69 0 77 0;
#X connect 70 0 69 0;
#X connect 71 0 80 0;
#X connect 71 1 70 0;
#X connect 72 0 71 0;
#X connect 73 0 78 0;
#X connect 74 0 73 0;
#X connect 75 0 79 0;
#X connect 75 1 74 0;
#X connect 76 0 75 0;
#X connect 77 0 49 0;
#X connect 77 0 93 0;
#X connect 78 0 84 0;
#X connect 78 0 92 0;
#X connect 79 0 73 0;
#X connect 80 0 69 0;
#X connect 81 0 72 1;
#X connect 82 0 76 1;
#X connect 83 0 15 0;
#X connect 83 0 28 0;
#X connect 83 0 29 0;
#X connect 83 0 30 0;
#X connect 83 0 81 0;
#X connect 83 0 82 0;
#X connect 84 0 85 0;
#X connect 85 0 88 0;
#X connect 85 0 0 1;
#X connect 86 0 87 0;
#X connect 87 0 90 0;
#X connect 89 0 91 0;
#X connect 90 0 88 0;
#X connect 90 0 0 1;
#X connect 91 0 86 0;
#X connect 92 0 51 0;
#X connect 93 0 85 0;
