#N canvas 451 110 791 666 10;
#X obj 241 209 line~;
#X obj 33 375 *~;
#X obj 241 232 tabread4~ mywindow;
#X obj -92 339 tabread4~ mysound;
#X obj -94 63 bng 15 250 50 0 empty empty empty 17 7 0 10 -262144 -1
-1;
#X obj -94 86 t b b;
#X msg 241 186 0 \, 511 \$1;
#X floatatom 256 129 5 0 0 0 - - -;
#X obj 241 159 f;
#X floatatom -41 117 5 0 0 0 - - -;
#X obj -93 145 f;
#X text -54 136 starting point;
#X obj -93 220 f;
#X floatatom 35 265 5 0 0 0 - - -;
#X obj -93 177 t b f f;
#X obj -93 273 pack 0 0;
#X text 286 127 length;
#X obj -93 309 line~;
#X obj 35 412 outlet~;
#X obj -95 33 inlet;
#X obj 256 80 r glen;
#X obj -41 75 r gstart;
#X text 42 281 tape octave;
#X obj 35 229 r goct;
#X obj -260 218 bng 15 250 50 0 empty empty empty 17 7 0 10 -262144
-1 -1;
#X obj 657 342 bng 15 250 50 0 empty empty empty 17 7 0 10 -262144
-1 -1;
#X obj 130 207 r sr;
#X obj 130 243 / 1000;
#X obj 88 237 t b f;
#X obj 35 303 * 1;
#X obj 115 270 * 1;
#X obj -93 246 + 1;
#X obj -57 204 pack 0 0;
#X connect 0 0 2 0;
#X connect 1 0 18 0;
#X connect 2 0 1 1;
#X connect 3 0 1 0;
#X connect 4 0 5 0;
#X connect 5 0 10 0;
#X connect 5 1 8 0;
#X connect 6 0 0 0;
#X connect 7 0 8 1;
#X connect 7 0 15 1;
#X connect 7 0 28 0;
#X connect 8 0 6 0;
#X connect 9 0 10 1;
#X connect 10 0 14 0;
#X connect 12 0 31 0;
#X connect 13 0 29 0;
#X connect 14 0 12 0;
#X connect 14 1 31 1;
#X connect 14 2 32 0;
#X connect 15 0 17 0;
#X connect 17 0 3 0;
#X connect 19 0 4 0;
#X connect 20 0 7 0;
#X connect 21 0 9 0;
#X connect 23 0 13 0;
#X connect 26 0 27 0;
#X connect 27 0 30 1;
#X connect 28 0 13 0;
#X connect 28 1 30 0;
#X connect 29 0 12 1;
#X connect 30 0 29 1;
#X connect 31 0 15 0;
#X connect 32 0 17 0;
